<mxfile host="app.diagrams.net" agent="Mozilla/5.0 (Macintosh; Intel Mac OS X 10_15_7) AppleWebKit/537.36 (KHTML, like Gecko) Chrome/131.0.0.0 Safari/537.36" version="24.8.9">
  <diagram name="Page-1" id="utYsTXJ76eyPyCShVCwP">
    <mxGraphModel dx="3700" dy="2856" grid="1" gridSize="10" guides="1" tooltips="1" connect="1" arrows="1" fold="1" page="1" pageScale="1" pageWidth="850" pageHeight="1100" math="0" shadow="0">
      <root>
        <mxCell id="0" />
        <mxCell id="1" parent="0" />
        <mxCell id="gvF0CUg50vXPNr1gY694-1" value="" style="rounded=1;arcSize=10;dashed=1;strokeColor=#6c8ebf;fillColor=#F2F8FF;" vertex="1" parent="1">
          <mxGeometry x="-150" y="120" width="1200" height="480" as="geometry" />
        </mxCell>
        <mxCell id="gvF0CUg50vXPNr1gY694-257" value="" style="rounded=1;whiteSpace=wrap;html=1;strokeWidth=2;dashed=1;" vertex="1" parent="1">
          <mxGeometry x="558" y="203" width="150" height="310" as="geometry" />
        </mxCell>
        <mxCell id="gvF0CUg50vXPNr1gY694-55" value="" style="rounded=0;whiteSpace=wrap;html=1;fillColor=#f5f5f5;strokeColor=#666666;fontColor=#333333;" vertex="1" parent="1">
          <mxGeometry x="62.5" y="-760" width="657.5" height="620" as="geometry" />
        </mxCell>
        <mxCell id="gvF0CUg50vXPNr1gY694-206" value="" style="rounded=1;whiteSpace=wrap;html=1;fillColor=#dae8fc;strokeColor=#6c8ebf;" vertex="1" parent="1">
          <mxGeometry x="120" y="-424" width="550" height="265" as="geometry" />
        </mxCell>
        <mxCell id="gvF0CUg50vXPNr1gY694-261" style="edgeStyle=orthogonalEdgeStyle;rounded=0;orthogonalLoop=1;jettySize=auto;html=1;exitX=0.5;exitY=0;exitDx=0;exitDy=0;entryX=0;entryY=0.5;entryDx=0;entryDy=0;strokeWidth=2;startArrow=classic;startFill=1;fillColor=#6a00ff;strokeColor=#3700CC;" edge="1" parent="1" source="gvF0CUg50vXPNr1gY694-2" target="gvF0CUg50vXPNr1gY694-235">
          <mxGeometry relative="1" as="geometry" />
        </mxCell>
        <mxCell id="gvF0CUg50vXPNr1gY694-264" style="edgeStyle=orthogonalEdgeStyle;rounded=0;orthogonalLoop=1;jettySize=auto;html=1;exitX=0.5;exitY=1;exitDx=0;exitDy=0;entryX=0;entryY=0.5;entryDx=0;entryDy=0;strokeWidth=2;startArrow=classic;startFill=1;fillColor=#008a00;strokeColor=#005700;" edge="1" parent="1" source="gvF0CUg50vXPNr1gY694-2" target="gvF0CUg50vXPNr1gY694-236">
          <mxGeometry relative="1" as="geometry" />
        </mxCell>
        <mxCell id="gvF0CUg50vXPNr1gY694-2" value="Core Services" style="rounded=1;whiteSpace=wrap;html=1;fillColor=#e1d5e7;strokeColor=#9673a6;" vertex="1" parent="1">
          <mxGeometry x="95" y="212.36" width="230" height="277.64" as="geometry" />
        </mxCell>
        <mxCell id="gvF0CUg50vXPNr1gY694-4" style="edgeStyle=orthogonalEdgeStyle;rounded=0;orthogonalLoop=1;jettySize=auto;html=1;exitX=0.25;exitY=0;exitDx=0;exitDy=0;endArrow=none;endFill=0;dashed=1;dashPattern=1 4;" edge="1" parent="1" source="gvF0CUg50vXPNr1gY694-5" target="gvF0CUg50vXPNr1gY694-3">
          <mxGeometry relative="1" as="geometry" />
        </mxCell>
        <mxCell id="gvF0CUg50vXPNr1gY694-5" value="&lt;h1 align=&quot;left&quot;&gt;Player Props REST Service Dependencies (See players.json for example object)&lt;br&gt;&lt;/h1&gt;&lt;div&gt;- Player Info&lt;/div&gt;&lt;div&gt;- Match Info&lt;/div&gt;&lt;div&gt;- Teams Info&lt;/div&gt;&lt;div&gt;- Market Info&lt;/div&gt;&lt;div&gt;- Projection Info&lt;/div&gt;&lt;div&gt;- Market Status Info&lt;/div&gt;&lt;div&gt;- Lines Info&lt;br&gt;&lt;/div&gt;&lt;div&gt;&lt;br&gt;&lt;/div&gt;" style="text;html=1;strokeColor=none;fillColor=none;spacing=5;spacingTop=-20;whiteSpace=wrap;overflow=hidden;rounded=0;align=left;" vertex="1" parent="1">
          <mxGeometry x="80" y="650" width="530" height="180" as="geometry" />
        </mxCell>
        <mxCell id="gvF0CUg50vXPNr1gY694-226" style="edgeStyle=orthogonalEdgeStyle;rounded=0;orthogonalLoop=1;jettySize=auto;html=1;exitX=1;exitY=0.5;exitDx=0;exitDy=0;" edge="1" parent="1" source="gvF0CUg50vXPNr1gY694-10">
          <mxGeometry relative="1" as="geometry">
            <mxPoint x="-89" y="350" as="targetPoint" />
          </mxGeometry>
        </mxCell>
        <mxCell id="gvF0CUg50vXPNr1gY694-10" value="Public Gateway" style="shape=hexagon;perimeter=hexagonPerimeter2;whiteSpace=wrap;html=1;fixedSize=1;fillColor=#e1d5e7;strokeColor=#9673a6;" vertex="1" parent="1">
          <mxGeometry x="-239" y="310" width="120" height="80" as="geometry" />
        </mxCell>
        <mxCell id="gvF0CUg50vXPNr1gY694-11" style="edgeStyle=none;rounded=0;orthogonalLoop=1;jettySize=auto;html=1;exitX=1;exitY=0.5;exitDx=0;exitDy=0;startArrow=classic;startFill=1;endArrow=none;endFill=0;" edge="1" parent="1" source="gvF0CUg50vXPNr1gY694-19" target="gvF0CUg50vXPNr1gY694-14">
          <mxGeometry relative="1" as="geometry">
            <mxPoint x="820" y="360" as="sourcePoint" />
          </mxGeometry>
        </mxCell>
        <mxCell id="gvF0CUg50vXPNr1gY694-12" style="edgeStyle=none;rounded=0;orthogonalLoop=1;jettySize=auto;html=1;exitX=0.55;exitY=0.95;exitDx=0;exitDy=0;exitPerimeter=0;startArrow=none;startFill=0;endArrow=classic;endFill=1;" edge="1" parent="1" source="gvF0CUg50vXPNr1gY694-13" target="gvF0CUg50vXPNr1gY694-20">
          <mxGeometry relative="1" as="geometry" />
        </mxCell>
        <mxCell id="gvF0CUg50vXPNr1gY694-13" value="Data Providers" style="ellipse;shape=cloud;whiteSpace=wrap;html=1;fillColor=#647687;strokeColor=#314354;fontColor=#ffffff;" vertex="1" parent="1">
          <mxGeometry x="886.5" y="50" width="120" height="80" as="geometry" />
        </mxCell>
        <mxCell id="gvF0CUg50vXPNr1gY694-14" value="" style="outlineConnect=0;fontColor=#232F3E;gradientColor=none;strokeColor=none;dashed=0;verticalLabelPosition=bottom;verticalAlign=top;align=center;html=1;fontSize=12;fontStyle=0;aspect=fixed;pointerEvents=1;shape=mxgraph.aws4.sagemaker_model;fillColor=#00AB28;" vertex="1" parent="1">
          <mxGeometry x="913" y="310" width="78" height="78" as="geometry" />
        </mxCell>
        <mxCell id="gvF0CUg50vXPNr1gY694-15" value="Machine Learning" style="text;html=1;align=center;verticalAlign=middle;resizable=0;points=[];autosize=1;" vertex="1" parent="1">
          <mxGeometry x="902" y="400" width="110" height="20" as="geometry" />
        </mxCell>
        <mxCell id="gvF0CUg50vXPNr1gY694-16" style="edgeStyle=none;rounded=0;orthogonalLoop=1;jettySize=auto;html=1;exitX=1;exitY=0.75;exitDx=0;exitDy=0;dashed=1;dashPattern=1 4;startArrow=none;startFill=0;endArrow=none;endFill=0;" edge="1" parent="1">
          <mxGeometry relative="1" as="geometry">
            <mxPoint x="570" y="855" as="sourcePoint" />
            <mxPoint x="570" y="855" as="targetPoint" />
          </mxGeometry>
        </mxCell>
        <mxCell id="gvF0CUg50vXPNr1gY694-17" value="" style="outlineConnect=0;strokeColor=#6c8ebf;dashed=0;verticalLabelPosition=bottom;verticalAlign=top;align=center;html=1;fontSize=12;fontStyle=0;aspect=fixed;shape=mxgraph.aws4.resourceIcon;resIcon=mxgraph.aws4.virtual_private_cloud;fillColor=#F2F8FF;" vertex="1" parent="1">
          <mxGeometry x="-90" y="130" width="60" height="60" as="geometry" />
        </mxCell>
        <mxCell id="gvF0CUg50vXPNr1gY694-18" style="edgeStyle=none;rounded=0;orthogonalLoop=1;jettySize=auto;html=1;exitX=0.5;exitY=1;exitDx=0;exitDy=0;entryX=0;entryY=0;entryDx=50;entryDy=0;entryPerimeter=0;" edge="1" parent="1">
          <mxGeometry relative="1" as="geometry">
            <mxPoint x="843" y="490" as="targetPoint" />
          </mxGeometry>
        </mxCell>
        <mxCell id="gvF0CUg50vXPNr1gY694-19" value="&lt;div&gt;NBA&lt;/div&gt;&lt;div&gt;Database&lt;br&gt;&lt;/div&gt;&lt;div&gt;&lt;br&gt;&lt;/div&gt;&lt;div&gt;(Relational)&lt;br&gt;&lt;/div&gt;" style="shape=datastore;whiteSpace=wrap;html=1;fillColor=#ffe6cc;strokeColor=#d79b00;" vertex="1" parent="1">
          <mxGeometry x="746" y="295" width="110" height="110" as="geometry" />
        </mxCell>
        <mxCell id="gvF0CUg50vXPNr1gY694-20" value="" style="outlineConnect=0;dashed=0;verticalLabelPosition=bottom;verticalAlign=top;align=center;html=1;fontSize=12;fontStyle=0;aspect=fixed;pointerEvents=1;shape=mxgraph.aws4.iot_analytics_pipeline;strokeColor=#d6b656;fillColor=#FFE599;" vertex="1" parent="1">
          <mxGeometry x="886.5" y="189.46" width="131" height="70.54" as="geometry" />
        </mxCell>
        <mxCell id="gvF0CUg50vXPNr1gY694-21" value="" style="edgeStyle=none;rounded=0;orthogonalLoop=1;jettySize=auto;html=1;startArrow=none;startFill=0;endArrow=classic;endFill=1;" edge="1" parent="1" target="gvF0CUg50vXPNr1gY694-14">
          <mxGeometry relative="1" as="geometry">
            <mxPoint x="951" y="250" as="sourcePoint" />
          </mxGeometry>
        </mxCell>
        <mxCell id="gvF0CUg50vXPNr1gY694-22" value="ETL" style="text;html=1;align=center;verticalAlign=middle;resizable=0;points=[];autosize=1;" vertex="1" parent="1">
          <mxGeometry x="930" y="214.73" width="40" height="20" as="geometry" />
        </mxCell>
        <mxCell id="gvF0CUg50vXPNr1gY694-24" value="&lt;h1 align=&quot;left&quot;&gt;Team Props REST Service Dependencies (See teams.json for example object)&lt;br&gt;&lt;/h1&gt;&lt;div&gt;- Match Info&lt;/div&gt;&lt;div&gt;- Team Info&lt;/div&gt;&lt;div&gt;- Market Info&lt;/div&gt;&lt;div&gt;- Projection Info&lt;/div&gt;&lt;div&gt;- Market Status Info&lt;br&gt;&lt;/div&gt;&lt;div&gt;- Lines Info&lt;br&gt;&lt;/div&gt;" style="text;html=1;strokeColor=none;fillColor=none;spacing=5;spacingTop=-20;whiteSpace=wrap;overflow=hidden;rounded=0;align=left;" vertex="1" parent="1">
          <mxGeometry x="95" y="-50" width="500" height="170" as="geometry" />
        </mxCell>
        <mxCell id="gvF0CUg50vXPNr1gY694-26" value="" style="rounded=1;whiteSpace=wrap;html=1;fillColor=none;dashed=1;strokeWidth=3;" vertex="1" parent="1">
          <mxGeometry x="335" y="130" width="380" height="460" as="geometry" />
        </mxCell>
        <mxCell id="gvF0CUg50vXPNr1gY694-35" value="Primary" style="swimlane;fontStyle=0;childLayout=stackLayout;horizontal=1;startSize=30;horizontalStack=0;resizeParent=1;resizeParentMax=0;resizeLast=0;collapsible=1;marginBottom=0;whiteSpace=wrap;html=1;fillColor=#f8cecc;strokeColor=#b85450;" vertex="1" parent="1">
          <mxGeometry x="120" y="-649" width="140" height="120" as="geometry" />
        </mxCell>
        <mxCell id="gvF0CUg50vXPNr1gY694-36" value="key1 - value1" style="text;align=left;verticalAlign=middle;spacingLeft=4;spacingRight=4;overflow=hidden;points=[[0,0.5],[1,0.5]];portConstraint=eastwest;rotatable=0;whiteSpace=wrap;html=1;opacity=0;" vertex="1" parent="gvF0CUg50vXPNr1gY694-35">
          <mxGeometry y="30" width="140" height="30" as="geometry" />
        </mxCell>
        <mxCell id="gvF0CUg50vXPNr1gY694-37" value="key1 - value2" style="text;strokeColor=none;fillColor=none;align=left;verticalAlign=middle;spacingLeft=4;spacingRight=4;overflow=hidden;points=[[0,0.5],[1,0.5]];portConstraint=eastwest;rotatable=0;whiteSpace=wrap;html=1;" vertex="1" parent="gvF0CUg50vXPNr1gY694-35">
          <mxGeometry y="60" width="140" height="30" as="geometry" />
        </mxCell>
        <mxCell id="gvF0CUg50vXPNr1gY694-38" value="..." style="text;strokeColor=none;fillColor=none;align=left;verticalAlign=middle;spacingLeft=4;spacingRight=4;overflow=hidden;points=[[0,0.5],[1,0.5]];portConstraint=eastwest;rotatable=0;whiteSpace=wrap;html=1;" vertex="1" parent="gvF0CUg50vXPNr1gY694-35">
          <mxGeometry y="90" width="140" height="30" as="geometry" />
        </mxCell>
        <mxCell id="gvF0CUg50vXPNr1gY694-43" value="Replicas 1" style="swimlane;fontStyle=0;childLayout=stackLayout;horizontal=1;startSize=30;horizontalStack=0;resizeParent=1;resizeParentMax=0;resizeLast=0;collapsible=1;marginBottom=0;whiteSpace=wrap;html=1;fillColor=#d5e8d4;strokeColor=#82b366;" vertex="1" parent="1">
          <mxGeometry x="370" y="-699" width="140" height="120" as="geometry" />
        </mxCell>
        <mxCell id="gvF0CUg50vXPNr1gY694-44" value="key1 - value1" style="text;strokeColor=none;fillColor=none;align=left;verticalAlign=middle;spacingLeft=4;spacingRight=4;overflow=hidden;points=[[0,0.5],[1,0.5]];portConstraint=eastwest;rotatable=0;whiteSpace=wrap;html=1;" vertex="1" parent="gvF0CUg50vXPNr1gY694-43">
          <mxGeometry y="30" width="140" height="30" as="geometry" />
        </mxCell>
        <mxCell id="gvF0CUg50vXPNr1gY694-45" value="key1 - value2" style="text;strokeColor=none;fillColor=none;align=left;verticalAlign=middle;spacingLeft=4;spacingRight=4;overflow=hidden;points=[[0,0.5],[1,0.5]];portConstraint=eastwest;rotatable=0;whiteSpace=wrap;html=1;" vertex="1" parent="gvF0CUg50vXPNr1gY694-43">
          <mxGeometry y="60" width="140" height="30" as="geometry" />
        </mxCell>
        <mxCell id="gvF0CUg50vXPNr1gY694-46" value="..." style="text;strokeColor=none;fillColor=none;align=left;verticalAlign=middle;spacingLeft=4;spacingRight=4;overflow=hidden;points=[[0,0.5],[1,0.5]];portConstraint=eastwest;rotatable=0;whiteSpace=wrap;html=1;" vertex="1" parent="gvF0CUg50vXPNr1gY694-43">
          <mxGeometry y="90" width="140" height="30" as="geometry" />
        </mxCell>
        <mxCell id="gvF0CUg50vXPNr1gY694-47" value="Replicas 2" style="swimlane;fontStyle=0;childLayout=stackLayout;horizontal=1;startSize=30;horizontalStack=0;resizeParent=1;resizeParentMax=0;resizeLast=0;collapsible=1;marginBottom=0;whiteSpace=wrap;html=1;fillColor=#d5e8d4;strokeColor=#82b366;" vertex="1" parent="1">
          <mxGeometry x="370" y="-559" width="140" height="120" as="geometry" />
        </mxCell>
        <mxCell id="gvF0CUg50vXPNr1gY694-48" value="key1 - value1" style="text;strokeColor=none;fillColor=none;align=left;verticalAlign=middle;spacingLeft=4;spacingRight=4;overflow=hidden;points=[[0,0.5],[1,0.5]];portConstraint=eastwest;rotatable=0;whiteSpace=wrap;html=1;" vertex="1" parent="gvF0CUg50vXPNr1gY694-47">
          <mxGeometry y="30" width="140" height="30" as="geometry" />
        </mxCell>
        <mxCell id="gvF0CUg50vXPNr1gY694-49" value="key1 - value2" style="text;strokeColor=none;fillColor=none;align=left;verticalAlign=middle;spacingLeft=4;spacingRight=4;overflow=hidden;points=[[0,0.5],[1,0.5]];portConstraint=eastwest;rotatable=0;whiteSpace=wrap;html=1;" vertex="1" parent="gvF0CUg50vXPNr1gY694-47">
          <mxGeometry y="60" width="140" height="30" as="geometry" />
        </mxCell>
        <mxCell id="gvF0CUg50vXPNr1gY694-50" value="..." style="text;strokeColor=none;fillColor=none;align=left;verticalAlign=middle;spacingLeft=4;spacingRight=4;overflow=hidden;points=[[0,0.5],[1,0.5]];portConstraint=eastwest;rotatable=0;whiteSpace=wrap;html=1;" vertex="1" parent="gvF0CUg50vXPNr1gY694-47">
          <mxGeometry y="90" width="140" height="30" as="geometry" />
        </mxCell>
        <mxCell id="gvF0CUg50vXPNr1gY694-52" style="edgeStyle=orthogonalEdgeStyle;rounded=0;orthogonalLoop=1;jettySize=auto;html=1;exitX=1;exitY=0.5;exitDx=0;exitDy=0;" edge="1" parent="1" source="gvF0CUg50vXPNr1gY694-36" target="gvF0CUg50vXPNr1gY694-44">
          <mxGeometry relative="1" as="geometry" />
        </mxCell>
        <mxCell id="gvF0CUg50vXPNr1gY694-53" style="edgeStyle=orthogonalEdgeStyle;rounded=0;orthogonalLoop=1;jettySize=auto;html=1;exitX=1;exitY=0.5;exitDx=0;exitDy=0;entryX=0;entryY=0.5;entryDx=0;entryDy=0;" edge="1" parent="1" source="gvF0CUg50vXPNr1gY694-37" target="gvF0CUg50vXPNr1gY694-48">
          <mxGeometry relative="1" as="geometry" />
        </mxCell>
        <mxCell id="gvF0CUg50vXPNr1gY694-155" value="" style="shape=table;startSize=0;container=1;collapsible=0;childLayout=tableLayout;fillColor=#e1d5e7;strokeColor=#9673a6;" vertex="1" parent="1">
          <mxGeometry x="140" y="-379" width="120" height="120" as="geometry" />
        </mxCell>
        <mxCell id="gvF0CUg50vXPNr1gY694-156" value="" style="shape=tableRow;horizontal=0;startSize=0;swimlaneHead=0;swimlaneBody=0;strokeColor=inherit;top=0;left=0;bottom=0;right=0;collapsible=0;dropTarget=0;fillColor=none;points=[[0,0.5],[1,0.5]];portConstraint=eastwest;" vertex="1" parent="gvF0CUg50vXPNr1gY694-155">
          <mxGeometry width="120" height="24" as="geometry" />
        </mxCell>
        <mxCell id="gvF0CUg50vXPNr1gY694-157" value="Key" style="shape=partialRectangle;html=1;whiteSpace=wrap;connectable=0;strokeColor=inherit;overflow=hidden;fillColor=none;top=0;left=0;bottom=0;right=0;pointerEvents=1;" vertex="1" parent="gvF0CUg50vXPNr1gY694-156">
          <mxGeometry width="60" height="24" as="geometry">
            <mxRectangle width="60" height="24" as="alternateBounds" />
          </mxGeometry>
        </mxCell>
        <mxCell id="gvF0CUg50vXPNr1gY694-158" value="Pointer" style="shape=partialRectangle;html=1;whiteSpace=wrap;connectable=0;strokeColor=inherit;overflow=hidden;fillColor=none;top=0;left=0;bottom=0;right=0;pointerEvents=1;" vertex="1" parent="gvF0CUg50vXPNr1gY694-156">
          <mxGeometry x="60" width="60" height="24" as="geometry">
            <mxRectangle width="60" height="24" as="alternateBounds" />
          </mxGeometry>
        </mxCell>
        <mxCell id="gvF0CUg50vXPNr1gY694-159" value="" style="shape=tableRow;horizontal=0;startSize=0;swimlaneHead=0;swimlaneBody=0;strokeColor=inherit;top=0;left=0;bottom=0;right=0;collapsible=0;dropTarget=0;fillColor=none;points=[[0,0.5],[1,0.5]];portConstraint=eastwest;" vertex="1" parent="gvF0CUg50vXPNr1gY694-155">
          <mxGeometry y="24" width="120" height="24" as="geometry" />
        </mxCell>
        <mxCell id="gvF0CUg50vXPNr1gY694-160" value="key1" style="shape=partialRectangle;html=1;whiteSpace=wrap;connectable=0;strokeColor=inherit;overflow=hidden;fillColor=none;top=0;left=0;bottom=0;right=0;pointerEvents=1;" vertex="1" parent="gvF0CUg50vXPNr1gY694-159">
          <mxGeometry width="60" height="24" as="geometry">
            <mxRectangle width="60" height="24" as="alternateBounds" />
          </mxGeometry>
        </mxCell>
        <mxCell id="gvF0CUg50vXPNr1gY694-161" value="0xfff02" style="shape=partialRectangle;html=1;whiteSpace=wrap;connectable=0;strokeColor=inherit;overflow=hidden;fillColor=none;top=0;left=0;bottom=0;right=0;pointerEvents=1;" vertex="1" parent="gvF0CUg50vXPNr1gY694-159">
          <mxGeometry x="60" width="60" height="24" as="geometry">
            <mxRectangle width="60" height="24" as="alternateBounds" />
          </mxGeometry>
        </mxCell>
        <mxCell id="gvF0CUg50vXPNr1gY694-162" value="" style="shape=tableRow;horizontal=0;startSize=0;swimlaneHead=0;swimlaneBody=0;strokeColor=inherit;top=0;left=0;bottom=0;right=0;collapsible=0;dropTarget=0;fillColor=none;points=[[0,0.5],[1,0.5]];portConstraint=eastwest;" vertex="1" parent="gvF0CUg50vXPNr1gY694-155">
          <mxGeometry y="48" width="120" height="24" as="geometry" />
        </mxCell>
        <mxCell id="gvF0CUg50vXPNr1gY694-163" value="key2" style="shape=partialRectangle;html=1;whiteSpace=wrap;connectable=0;strokeColor=inherit;overflow=hidden;fillColor=none;top=0;left=0;bottom=0;right=0;pointerEvents=1;" vertex="1" parent="gvF0CUg50vXPNr1gY694-162">
          <mxGeometry width="60" height="24" as="geometry">
            <mxRectangle width="60" height="24" as="alternateBounds" />
          </mxGeometry>
        </mxCell>
        <mxCell id="gvF0CUg50vXPNr1gY694-164" value="0xfff03" style="shape=partialRectangle;html=1;whiteSpace=wrap;connectable=0;strokeColor=inherit;overflow=hidden;fillColor=none;top=0;left=0;bottom=0;right=0;pointerEvents=1;" vertex="1" parent="gvF0CUg50vXPNr1gY694-162">
          <mxGeometry x="60" width="60" height="24" as="geometry">
            <mxRectangle width="60" height="24" as="alternateBounds" />
          </mxGeometry>
        </mxCell>
        <mxCell id="gvF0CUg50vXPNr1gY694-165" value="" style="shape=tableRow;horizontal=0;startSize=0;swimlaneHead=0;swimlaneBody=0;strokeColor=inherit;top=0;left=0;bottom=0;right=0;collapsible=0;dropTarget=0;fillColor=none;points=[[0,0.5],[1,0.5]];portConstraint=eastwest;" vertex="1" parent="gvF0CUg50vXPNr1gY694-155">
          <mxGeometry y="72" width="120" height="24" as="geometry" />
        </mxCell>
        <mxCell id="gvF0CUg50vXPNr1gY694-166" value="key3" style="shape=partialRectangle;html=1;whiteSpace=wrap;connectable=0;strokeColor=inherit;overflow=hidden;fillColor=none;top=0;left=0;bottom=0;right=0;pointerEvents=1;" vertex="1" parent="gvF0CUg50vXPNr1gY694-165">
          <mxGeometry width="60" height="24" as="geometry">
            <mxRectangle width="60" height="24" as="alternateBounds" />
          </mxGeometry>
        </mxCell>
        <mxCell id="gvF0CUg50vXPNr1gY694-167" value="0xffff01" style="shape=partialRectangle;html=1;whiteSpace=wrap;connectable=0;strokeColor=inherit;overflow=hidden;fillColor=none;top=0;left=0;bottom=0;right=0;pointerEvents=1;" vertex="1" parent="gvF0CUg50vXPNr1gY694-165">
          <mxGeometry x="60" width="60" height="24" as="geometry">
            <mxRectangle width="60" height="24" as="alternateBounds" />
          </mxGeometry>
        </mxCell>
        <mxCell id="gvF0CUg50vXPNr1gY694-168" value="" style="shape=tableRow;horizontal=0;startSize=0;swimlaneHead=0;swimlaneBody=0;strokeColor=inherit;top=0;left=0;bottom=0;right=0;collapsible=0;dropTarget=0;fillColor=none;points=[[0,0.5],[1,0.5]];portConstraint=eastwest;" vertex="1" parent="gvF0CUg50vXPNr1gY694-155">
          <mxGeometry y="96" width="120" height="24" as="geometry" />
        </mxCell>
        <mxCell id="gvF0CUg50vXPNr1gY694-169" value="..." style="shape=partialRectangle;html=1;whiteSpace=wrap;connectable=0;strokeColor=inherit;overflow=hidden;fillColor=none;top=0;left=0;bottom=0;right=0;pointerEvents=1;" vertex="1" parent="gvF0CUg50vXPNr1gY694-168">
          <mxGeometry width="60" height="24" as="geometry">
            <mxRectangle width="60" height="24" as="alternateBounds" />
          </mxGeometry>
        </mxCell>
        <mxCell id="gvF0CUg50vXPNr1gY694-170" value="..." style="shape=partialRectangle;html=1;whiteSpace=wrap;connectable=0;strokeColor=inherit;overflow=hidden;fillColor=none;top=0;left=0;bottom=0;right=0;pointerEvents=1;" vertex="1" parent="gvF0CUg50vXPNr1gY694-168">
          <mxGeometry x="60" width="60" height="24" as="geometry">
            <mxRectangle width="60" height="24" as="alternateBounds" />
          </mxGeometry>
        </mxCell>
        <mxCell id="gvF0CUg50vXPNr1gY694-171" value="Hashmap" style="text;html=1;align=center;verticalAlign=middle;whiteSpace=wrap;rounded=0;" vertex="1" parent="1">
          <mxGeometry x="170" y="-409" width="60" height="30" as="geometry" />
        </mxCell>
        <mxCell id="gvF0CUg50vXPNr1gY694-186" style="edgeStyle=orthogonalEdgeStyle;rounded=0;orthogonalLoop=1;jettySize=auto;html=1;exitX=1;exitY=0.25;exitDx=0;exitDy=0;entryX=0;entryY=0.25;entryDx=0;entryDy=0;" edge="1" parent="1" source="gvF0CUg50vXPNr1gY694-172" target="gvF0CUg50vXPNr1gY694-174">
          <mxGeometry relative="1" as="geometry" />
        </mxCell>
        <mxCell id="gvF0CUg50vXPNr1gY694-172" value="value 3" style="rounded=0;whiteSpace=wrap;html=1;fillColor=#fff2cc;strokeColor=#d6b656;" vertex="1" parent="1">
          <mxGeometry x="330" y="-271" width="70" height="28" as="geometry" />
        </mxCell>
        <mxCell id="gvF0CUg50vXPNr1gY694-189" style="edgeStyle=orthogonalEdgeStyle;rounded=0;orthogonalLoop=1;jettySize=auto;html=1;exitX=0;exitY=0.75;exitDx=0;exitDy=0;entryX=1;entryY=0.75;entryDx=0;entryDy=0;" edge="1" parent="1" source="gvF0CUg50vXPNr1gY694-174" target="gvF0CUg50vXPNr1gY694-172">
          <mxGeometry relative="1" as="geometry" />
        </mxCell>
        <mxCell id="gvF0CUg50vXPNr1gY694-174" value="value 1" style="rounded=0;whiteSpace=wrap;html=1;fillColor=#fff2cc;strokeColor=#d6b656;" vertex="1" parent="1">
          <mxGeometry x="450" y="-271" width="70" height="28" as="geometry" />
        </mxCell>
        <mxCell id="gvF0CUg50vXPNr1gY694-175" value="value 2" style="rounded=0;whiteSpace=wrap;html=1;fillColor=#fff2cc;strokeColor=#d6b656;" vertex="1" parent="1">
          <mxGeometry x="568" y="-271" width="70" height="28" as="geometry" />
        </mxCell>
        <mxCell id="gvF0CUg50vXPNr1gY694-180" style="edgeStyle=orthogonalEdgeStyle;rounded=0;orthogonalLoop=1;jettySize=auto;html=1;exitX=1;exitY=0.5;exitDx=0;exitDy=0;entryX=0.5;entryY=0;entryDx=0;entryDy=0;" edge="1" parent="1" source="gvF0CUg50vXPNr1gY694-165" target="gvF0CUg50vXPNr1gY694-172">
          <mxGeometry relative="1" as="geometry" />
        </mxCell>
        <mxCell id="gvF0CUg50vXPNr1gY694-182" style="edgeStyle=orthogonalEdgeStyle;rounded=0;orthogonalLoop=1;jettySize=auto;html=1;exitX=1;exitY=0.5;exitDx=0;exitDy=0;entryX=0.5;entryY=0;entryDx=0;entryDy=0;" edge="1" parent="1" source="gvF0CUg50vXPNr1gY694-159" target="gvF0CUg50vXPNr1gY694-174">
          <mxGeometry relative="1" as="geometry" />
        </mxCell>
        <mxCell id="gvF0CUg50vXPNr1gY694-184" style="edgeStyle=orthogonalEdgeStyle;rounded=0;orthogonalLoop=1;jettySize=auto;html=1;exitX=1;exitY=0.5;exitDx=0;exitDy=0;entryX=0.5;entryY=0;entryDx=0;entryDy=0;" edge="1" parent="1" source="gvF0CUg50vXPNr1gY694-162" target="gvF0CUg50vXPNr1gY694-175">
          <mxGeometry relative="1" as="geometry" />
        </mxCell>
        <mxCell id="gvF0CUg50vXPNr1gY694-190" style="edgeStyle=orthogonalEdgeStyle;rounded=0;orthogonalLoop=1;jettySize=auto;html=1;exitX=1;exitY=0.25;exitDx=0;exitDy=0;entryX=0;entryY=0.25;entryDx=0;entryDy=0;" edge="1" parent="1">
          <mxGeometry relative="1" as="geometry">
            <mxPoint x="519" y="-263" as="sourcePoint" />
            <mxPoint x="569" y="-263" as="targetPoint" />
          </mxGeometry>
        </mxCell>
        <mxCell id="gvF0CUg50vXPNr1gY694-191" style="edgeStyle=orthogonalEdgeStyle;rounded=0;orthogonalLoop=1;jettySize=auto;html=1;exitX=0;exitY=0.75;exitDx=0;exitDy=0;entryX=1;entryY=0.75;entryDx=0;entryDy=0;" edge="1" parent="1">
          <mxGeometry relative="1" as="geometry">
            <mxPoint x="569" y="-249" as="sourcePoint" />
            <mxPoint x="519" y="-249" as="targetPoint" />
          </mxGeometry>
        </mxCell>
        <mxCell id="gvF0CUg50vXPNr1gY694-202" style="edgeStyle=orthogonalEdgeStyle;rounded=0;orthogonalLoop=1;jettySize=auto;html=1;exitX=0.5;exitY=0;exitDx=0;exitDy=0;entryX=0.5;entryY=1;entryDx=0;entryDy=0;" edge="1" parent="1" source="gvF0CUg50vXPNr1gY694-196" target="gvF0CUg50vXPNr1gY694-172">
          <mxGeometry relative="1" as="geometry" />
        </mxCell>
        <mxCell id="gvF0CUg50vXPNr1gY694-196" value="Head" style="text;html=1;align=center;verticalAlign=middle;whiteSpace=wrap;rounded=0;" vertex="1" parent="1">
          <mxGeometry x="335" y="-215" width="60" height="30" as="geometry" />
        </mxCell>
        <mxCell id="gvF0CUg50vXPNr1gY694-203" style="edgeStyle=orthogonalEdgeStyle;rounded=0;orthogonalLoop=1;jettySize=auto;html=1;exitX=0.5;exitY=0;exitDx=0;exitDy=0;entryX=0.5;entryY=1;entryDx=0;entryDy=0;" edge="1" parent="1" source="gvF0CUg50vXPNr1gY694-199" target="gvF0CUg50vXPNr1gY694-175">
          <mxGeometry relative="1" as="geometry" />
        </mxCell>
        <mxCell id="gvF0CUg50vXPNr1gY694-199" value="Tail" style="text;html=1;align=center;verticalAlign=middle;whiteSpace=wrap;rounded=0;" vertex="1" parent="1">
          <mxGeometry x="573" y="-218" width="60" height="30" as="geometry" />
        </mxCell>
        <mxCell id="gvF0CUg50vXPNr1gY694-204" value="LRU" style="text;html=1;align=center;verticalAlign=middle;whiteSpace=wrap;rounded=0;" vertex="1" parent="1">
          <mxGeometry x="365" y="-419" width="60" height="30" as="geometry" />
        </mxCell>
        <mxCell id="gvF0CUg50vXPNr1gY694-208" value="" style="shape=flexArrow;endArrow=classic;html=1;rounded=0;fillColor=#dae8fc;strokeColor=#6c8ebf;" edge="1" parent="1">
          <mxGeometry width="50" height="50" relative="1" as="geometry">
            <mxPoint x="189.5" y="-519" as="sourcePoint" />
            <mxPoint x="190" y="-439" as="targetPoint" />
          </mxGeometry>
        </mxCell>
        <mxCell id="gvF0CUg50vXPNr1gY694-209" value="&lt;font style=&quot;font-size: 22px;&quot;&gt;Cache Shard&lt;/font&gt;" style="text;html=1;align=center;verticalAlign=middle;whiteSpace=wrap;rounded=0;" vertex="1" parent="1">
          <mxGeometry x="300" y="-750" width="188.75" height="50" as="geometry" />
        </mxCell>
        <mxCell id="gvF0CUg50vXPNr1gY694-211" value="&lt;div&gt;Team Props&lt;/div&gt;&lt;div&gt;REST Service&lt;br&gt;&lt;/div&gt;" style="rounded=1;whiteSpace=wrap;html=1;strokeColor=#82b366;fillColor=#AEE8A7;" vertex="1" parent="1">
          <mxGeometry x="193" y="234.73" width="120" height="60" as="geometry" />
        </mxCell>
        <mxCell id="gvF0CUg50vXPNr1gY694-210" value="&lt;div&gt;Team Props&lt;/div&gt;&lt;div&gt;REST Service&lt;br&gt;&lt;/div&gt;" style="rounded=1;whiteSpace=wrap;html=1;strokeColor=#82b366;fillColor=#AEE8A7;" vertex="1" parent="1">
          <mxGeometry x="187" y="227.73" width="120" height="60" as="geometry" />
        </mxCell>
        <mxCell id="gvF0CUg50vXPNr1gY694-246" style="edgeStyle=orthogonalEdgeStyle;rounded=0;orthogonalLoop=1;jettySize=auto;html=1;exitX=1;exitY=0.5;exitDx=0;exitDy=0;entryX=0;entryY=0.5;entryDx=0;entryDy=0;strokeWidth=2;fillColor=#dae8fc;strokeColor=#6c8ebf;" edge="1" parent="1" source="gvF0CUg50vXPNr1gY694-23" target="gvF0CUg50vXPNr1gY694-237">
          <mxGeometry relative="1" as="geometry" />
        </mxCell>
        <mxCell id="gvF0CUg50vXPNr1gY694-247" style="edgeStyle=orthogonalEdgeStyle;rounded=0;orthogonalLoop=1;jettySize=auto;html=1;exitX=1;exitY=0.5;exitDx=0;exitDy=0;entryX=0;entryY=0.5;entryDx=0;entryDy=0;strokeWidth=2;fillColor=#dae8fc;strokeColor=#6c8ebf;" edge="1" parent="1" source="gvF0CUg50vXPNr1gY694-23" target="gvF0CUg50vXPNr1gY694-238">
          <mxGeometry relative="1" as="geometry">
            <Array as="points">
              <mxPoint x="520" y="250" />
              <mxPoint x="520" y="358" />
            </Array>
          </mxGeometry>
        </mxCell>
        <mxCell id="gvF0CUg50vXPNr1gY694-248" style="edgeStyle=orthogonalEdgeStyle;rounded=0;orthogonalLoop=1;jettySize=auto;html=1;exitX=1;exitY=0.5;exitDx=0;exitDy=0;entryX=0;entryY=0.5;entryDx=0;entryDy=0;strokeWidth=2;fillColor=#dae8fc;strokeColor=#6c8ebf;" edge="1" parent="1" source="gvF0CUg50vXPNr1gY694-23" target="gvF0CUg50vXPNr1gY694-239">
          <mxGeometry relative="1" as="geometry">
            <Array as="points">
              <mxPoint x="520" y="250" />
              <mxPoint x="520" y="460" />
            </Array>
          </mxGeometry>
        </mxCell>
        <mxCell id="gvF0CUg50vXPNr1gY694-23" value="&lt;div&gt;Team Props&lt;/div&gt;&lt;div&gt;REST Service&lt;br&gt;&lt;/div&gt;" style="rounded=1;whiteSpace=wrap;html=1;strokeColor=#82b366;fillColor=#AEE8A7;" vertex="1" parent="1">
          <mxGeometry x="183" y="219.73" width="120" height="60" as="geometry" />
        </mxCell>
        <mxCell id="gvF0CUg50vXPNr1gY694-214" value="&lt;div&gt;Player Props&lt;/div&gt;&lt;div&gt;REST Service&lt;br&gt;&lt;/div&gt;" style="rounded=1;whiteSpace=wrap;html=1;strokeColor=#82b366;fillColor=#AEE8A7;" vertex="1" parent="1">
          <mxGeometry x="196" y="415" width="120" height="60" as="geometry" />
        </mxCell>
        <mxCell id="gvF0CUg50vXPNr1gY694-213" value="&lt;div&gt;Player Props&lt;/div&gt;&lt;div&gt;REST Service&lt;br&gt;&lt;/div&gt;" style="rounded=1;whiteSpace=wrap;html=1;strokeColor=#82b366;fillColor=#AEE8A7;" vertex="1" parent="1">
          <mxGeometry x="189" y="405" width="120" height="60" as="geometry" />
        </mxCell>
        <mxCell id="gvF0CUg50vXPNr1gY694-249" style="edgeStyle=orthogonalEdgeStyle;rounded=0;orthogonalLoop=1;jettySize=auto;html=1;exitX=1;exitY=0.5;exitDx=0;exitDy=0;entryX=0;entryY=0.75;entryDx=0;entryDy=0;strokeWidth=2;fillColor=#f8cecc;strokeColor=#b85450;" edge="1" parent="1" source="gvF0CUg50vXPNr1gY694-3" target="gvF0CUg50vXPNr1gY694-237">
          <mxGeometry relative="1" as="geometry" />
        </mxCell>
        <mxCell id="gvF0CUg50vXPNr1gY694-250" style="edgeStyle=orthogonalEdgeStyle;rounded=0;orthogonalLoop=1;jettySize=auto;html=1;exitX=1;exitY=0.5;exitDx=0;exitDy=0;entryX=0;entryY=0.75;entryDx=0;entryDy=0;strokeWidth=2;fillColor=#f8cecc;strokeColor=#b85450;" edge="1" parent="1" source="gvF0CUg50vXPNr1gY694-3" target="gvF0CUg50vXPNr1gY694-238">
          <mxGeometry relative="1" as="geometry" />
        </mxCell>
        <mxCell id="gvF0CUg50vXPNr1gY694-251" style="edgeStyle=orthogonalEdgeStyle;rounded=0;orthogonalLoop=1;jettySize=auto;html=1;exitX=1;exitY=0.5;exitDx=0;exitDy=0;entryX=0;entryY=0.75;entryDx=0;entryDy=0;fillColor=#f8cecc;strokeColor=#b85450;strokeWidth=2;" edge="1" parent="1" source="gvF0CUg50vXPNr1gY694-3" target="gvF0CUg50vXPNr1gY694-239">
          <mxGeometry relative="1" as="geometry" />
        </mxCell>
        <mxCell id="gvF0CUg50vXPNr1gY694-3" value="&lt;div&gt;Player Props&lt;/div&gt;&lt;div&gt;REST Service&lt;br&gt;&lt;/div&gt;" style="rounded=1;whiteSpace=wrap;html=1;strokeColor=#82b366;fillColor=#AEE8A7;" vertex="1" parent="1">
          <mxGeometry x="183" y="394" width="120" height="60" as="geometry" />
        </mxCell>
        <mxCell id="gvF0CUg50vXPNr1gY694-228" value="" style="edgeStyle=orthogonalEdgeStyle;rounded=0;orthogonalLoop=1;jettySize=auto;html=1;" edge="1" parent="1" source="gvF0CUg50vXPNr1gY694-215" target="gvF0CUg50vXPNr1gY694-8">
          <mxGeometry relative="1" as="geometry" />
        </mxCell>
        <mxCell id="gvF0CUg50vXPNr1gY694-215" value="LB" style="sketch=0;outlineConnect=0;fontColor=#232F3E;gradientColor=none;fillColor=#8C4FFF;strokeColor=none;dashed=0;verticalLabelPosition=bottom;verticalAlign=top;align=center;html=1;fontSize=12;fontStyle=0;aspect=fixed;pointerEvents=1;shape=mxgraph.aws4.network_load_balancer;" vertex="1" parent="1">
          <mxGeometry x="-90" y="335" width="30" height="30" as="geometry" />
        </mxCell>
        <mxCell id="gvF0CUg50vXPNr1gY694-218" value="&lt;div&gt;Client API&lt;/div&gt;&lt;div&gt;REST Service&lt;/div&gt;" style="rounded=1;whiteSpace=wrap;html=1;strokeColor=#82b366;fillColor=#AEE8A7;" vertex="1" parent="1">
          <mxGeometry x="-10" y="340" width="120" height="60" as="geometry" />
        </mxCell>
        <mxCell id="gvF0CUg50vXPNr1gY694-217" value="&lt;div&gt;Client API&lt;/div&gt;&lt;div&gt;REST Service&lt;/div&gt;" style="rounded=1;whiteSpace=wrap;html=1;strokeColor=#82b366;fillColor=#AEE8A7;" vertex="1" parent="1">
          <mxGeometry x="-20" y="330" width="120" height="60" as="geometry" />
        </mxCell>
        <mxCell id="gvF0CUg50vXPNr1gY694-229" style="edgeStyle=orthogonalEdgeStyle;rounded=0;orthogonalLoop=1;jettySize=auto;html=1;exitX=1;exitY=0.5;exitDx=0;exitDy=0;" edge="1" parent="1" source="gvF0CUg50vXPNr1gY694-8" target="gvF0CUg50vXPNr1gY694-220">
          <mxGeometry relative="1" as="geometry">
            <Array as="points">
              <mxPoint x="120" y="350" />
              <mxPoint x="120" y="249" />
            </Array>
          </mxGeometry>
        </mxCell>
        <mxCell id="gvF0CUg50vXPNr1gY694-230" style="edgeStyle=orthogonalEdgeStyle;rounded=0;orthogonalLoop=1;jettySize=auto;html=1;exitX=1;exitY=0.75;exitDx=0;exitDy=0;" edge="1" parent="1" source="gvF0CUg50vXPNr1gY694-8" target="gvF0CUg50vXPNr1gY694-221">
          <mxGeometry relative="1" as="geometry">
            <Array as="points">
              <mxPoint x="120" y="365" />
              <mxPoint x="120" y="424" />
            </Array>
          </mxGeometry>
        </mxCell>
        <mxCell id="gvF0CUg50vXPNr1gY694-8" value="&lt;div&gt;Client API&lt;/div&gt;&lt;div&gt;REST Service&lt;/div&gt;" style="rounded=1;whiteSpace=wrap;html=1;strokeColor=#82b366;fillColor=#AEE8A7;" vertex="1" parent="1">
          <mxGeometry x="-30" y="320" width="120" height="60" as="geometry" />
        </mxCell>
        <mxCell id="gvF0CUg50vXPNr1gY694-232" value="" style="edgeStyle=orthogonalEdgeStyle;rounded=0;orthogonalLoop=1;jettySize=auto;html=1;" edge="1" parent="1" source="gvF0CUg50vXPNr1gY694-220" target="gvF0CUg50vXPNr1gY694-23">
          <mxGeometry relative="1" as="geometry" />
        </mxCell>
        <mxCell id="gvF0CUg50vXPNr1gY694-220" value="LB" style="sketch=0;outlineConnect=0;fontColor=#232F3E;gradientColor=none;fillColor=#8C4FFF;strokeColor=none;dashed=0;verticalLabelPosition=bottom;verticalAlign=top;align=center;html=1;fontSize=12;fontStyle=0;aspect=fixed;pointerEvents=1;shape=mxgraph.aws4.network_load_balancer;" vertex="1" parent="1">
          <mxGeometry x="130" y="234.73" width="30" height="30" as="geometry" />
        </mxCell>
        <mxCell id="gvF0CUg50vXPNr1gY694-233" value="" style="edgeStyle=orthogonalEdgeStyle;rounded=0;orthogonalLoop=1;jettySize=auto;html=1;" edge="1" parent="1" source="gvF0CUg50vXPNr1gY694-221" target="gvF0CUg50vXPNr1gY694-3">
          <mxGeometry relative="1" as="geometry" />
        </mxCell>
        <mxCell id="gvF0CUg50vXPNr1gY694-221" value="LB" style="sketch=0;outlineConnect=0;fontColor=#232F3E;gradientColor=none;fillColor=#8C4FFF;strokeColor=none;dashed=0;verticalLabelPosition=bottom;verticalAlign=top;align=center;html=1;fontSize=12;fontStyle=0;aspect=fixed;pointerEvents=1;shape=mxgraph.aws4.network_load_balancer;" vertex="1" parent="1">
          <mxGeometry x="130" y="410" width="28" height="28" as="geometry" />
        </mxCell>
        <mxCell id="gvF0CUg50vXPNr1gY694-235" value="Configuration&lt;div&gt;Service&lt;/div&gt;" style="rounded=0;whiteSpace=wrap;html=1;fillColor=#e1d5e7;strokeColor=#9673a6;" vertex="1" parent="1">
          <mxGeometry x="380" y="140" width="120" height="50" as="geometry" />
        </mxCell>
        <mxCell id="gvF0CUg50vXPNr1gY694-265" style="edgeStyle=orthogonalEdgeStyle;rounded=0;orthogonalLoop=1;jettySize=auto;html=1;exitX=1;exitY=0.5;exitDx=0;exitDy=0;entryX=0.5;entryY=1;entryDx=0;entryDy=0;startArrow=classic;startFill=1;strokeWidth=2;fillColor=#008a00;strokeColor=#005700;" edge="1" parent="1" source="gvF0CUg50vXPNr1gY694-236" target="gvF0CUg50vXPNr1gY694-256">
          <mxGeometry relative="1" as="geometry" />
        </mxCell>
        <mxCell id="gvF0CUg50vXPNr1gY694-236" value="Monitoring&lt;div&gt;Service&lt;/div&gt;" style="rounded=0;whiteSpace=wrap;html=1;fillColor=#d5e8d4;strokeColor=#82b366;" vertex="1" parent="1">
          <mxGeometry x="380" y="525" width="120" height="50" as="geometry" />
        </mxCell>
        <mxCell id="gvF0CUg50vXPNr1gY694-237" value="Cache Shard 1" style="rounded=0;whiteSpace=wrap;html=1;fillColor=#f5f5f5;fontColor=#333333;strokeColor=#666666;" vertex="1" parent="1">
          <mxGeometry x="573" y="219.73000000000002" width="120" height="60" as="geometry" />
        </mxCell>
        <mxCell id="gvF0CUg50vXPNr1gY694-238" value="Cache Shard 2" style="rounded=0;whiteSpace=wrap;html=1;fillColor=#f5f5f5;fontColor=#333333;strokeColor=#666666;" vertex="1" parent="1">
          <mxGeometry x="574" y="328" width="120" height="60" as="geometry" />
        </mxCell>
        <mxCell id="gvF0CUg50vXPNr1gY694-254" style="edgeStyle=orthogonalEdgeStyle;rounded=0;orthogonalLoop=1;jettySize=auto;html=1;exitX=1;exitY=0.5;exitDx=0;exitDy=0;entryX=0.5;entryY=1;entryDx=0;entryDy=0;" edge="1" parent="1" source="gvF0CUg50vXPNr1gY694-239" target="gvF0CUg50vXPNr1gY694-19">
          <mxGeometry relative="1" as="geometry" />
        </mxCell>
        <mxCell id="gvF0CUg50vXPNr1gY694-239" value="Cache Shard 3" style="rounded=0;whiteSpace=wrap;html=1;fillColor=#f5f5f5;fontColor=#333333;strokeColor=#666666;" vertex="1" parent="1">
          <mxGeometry x="574" y="430" width="120" height="60" as="geometry" />
        </mxCell>
        <mxCell id="gvF0CUg50vXPNr1gY694-252" style="edgeStyle=orthogonalEdgeStyle;rounded=0;orthogonalLoop=1;jettySize=auto;html=1;exitX=1;exitY=0.5;exitDx=0;exitDy=0;entryX=0.445;entryY=-0.036;entryDx=0;entryDy=0;entryPerimeter=0;" edge="1" parent="1" source="gvF0CUg50vXPNr1gY694-237" target="gvF0CUg50vXPNr1gY694-19">
          <mxGeometry relative="1" as="geometry" />
        </mxCell>
        <mxCell id="gvF0CUg50vXPNr1gY694-255" style="edgeStyle=orthogonalEdgeStyle;rounded=0;orthogonalLoop=1;jettySize=auto;html=1;exitX=1;exitY=0.5;exitDx=0;exitDy=0;entryX=-0.009;entryY=0.573;entryDx=0;entryDy=0;entryPerimeter=0;" edge="1" parent="1" source="gvF0CUg50vXPNr1gY694-238" target="gvF0CUg50vXPNr1gY694-19">
          <mxGeometry relative="1" as="geometry" />
        </mxCell>
        <mxCell id="gvF0CUg50vXPNr1gY694-256" value="&lt;font style=&quot;font-size: 24px;&quot;&gt;...&lt;/font&gt;" style="text;html=1;align=center;verticalAlign=middle;whiteSpace=wrap;rounded=0;" vertex="1" parent="1">
          <mxGeometry x="595" y="495" width="60" height="30" as="geometry" />
        </mxCell>
        <mxCell id="gvF0CUg50vXPNr1gY694-263" style="edgeStyle=orthogonalEdgeStyle;rounded=0;orthogonalLoop=1;jettySize=auto;html=1;exitX=1;exitY=0.5;exitDx=0;exitDy=0;entryX=0.776;entryY=0.152;entryDx=0;entryDy=0;entryPerimeter=0;startArrow=classic;startFill=1;strokeWidth=2;fillColor=#6a00ff;strokeColor=#3700CC;" edge="1" parent="1" source="gvF0CUg50vXPNr1gY694-235" target="gvF0CUg50vXPNr1gY694-26">
          <mxGeometry relative="1" as="geometry">
            <Array as="points">
              <mxPoint x="630" y="165" />
            </Array>
          </mxGeometry>
        </mxCell>
        <mxCell id="gvF0CUg50vXPNr1gY694-266" value="Distributed Cache" style="text;html=1;align=center;verticalAlign=middle;whiteSpace=wrap;rounded=0;" vertex="1" parent="1">
          <mxGeometry x="568" y="290" width="120" height="30" as="geometry" />
        </mxCell>
      </root>
    </mxGraphModel>
  </diagram>
</mxfile>
